<svg xmlns="http://www.w3.org/2000/svg" viewBox="0 0 160 240" fill="none" aria-hidden="true">
  <defs>
    <linearGradient id="potBody" x1="30%" y1="0%" x2="70%" y2="100%">
      <stop offset="0%" stop-color="#c87830"/>
      <stop offset="35%" stop-color="#9a4f18"/>
      <stop offset="72%" stop-color="#6b3410"/>
      <stop offset="100%" stop-color="#4a240a"/>
    </linearGradient>
    <linearGradient id="potHighlight" x1="0%" y1="0%" x2="100%" y2="0%">
      <stop offset="0%" stop-color="#fff" stop-opacity="0.28"/>
      <stop offset="45%" stop-color="#fff" stop-opacity="0"/>
      <stop offset="100%" stop-color="#000" stop-opacity="0.12"/>
    </linearGradient>
    <linearGradient id="potRim" x1="0%" y1="0%" x2="0%" y2="100%">
      <stop offset="0%" stop-color="#fcefd7"/>
      <stop offset="55%" stop-color="#f2c879"/>
      <stop offset="100%" stop-color="#b8862a"/>
    </linearGradient>
    <radialGradient id="soilGrad" cx="50%" cy="40%" r="60%">
      <stop offset="0%" stop-color="#4a3020"/>
      <stop offset="100%" stop-color="#241408"/>
    </radialGradient>
    <linearGradient id="stemGrad" x1="0%" y1="0%" x2="100%" y2="0%">
      <stop offset="0%" stop-color="#1f4a22"/>
      <stop offset="50%" stop-color="#3d7a3a"/>
      <stop offset="100%" stop-color="#1f4a22"/>
    </linearGradient>
    <linearGradient id="leafGrad" x1="0%" y1="0%" x2="100%" y2="100%">
      <stop offset="0%" stop-color="#5fa855"/>
      <stop offset="100%" stop-color="#2d5c28"/>
    </linearGradient>
    <radialGradient id="marigoldOuter" cx="45%" cy="35%" r="65%">
      <stop offset="0%" stop-color="#ffd56a"/>
      <stop offset="45%" stop-color="#f0a020"/>
      <stop offset="100%" stop-color="#c86a08"/>
    </radialGradient>
    <radialGradient id="marigoldMid" cx="48%" cy="38%" r="60%">
      <stop offset="0%" stop-color="#ffe08a"/>
      <stop offset="100%" stop-color="#e08818"/>
    </radialGradient>
    <radialGradient id="marigoldCenter" cx="50%" cy="50%" r="50%">
      <stop offset="0%" stop-color="#8b4510"/>
      <stop offset="100%" stop-color="#5c2e08"/>
    </radialGradient>
    <radialGradient id="roseOuter" cx="40%" cy="30%" r="70%">
      <stop offset="0%" stop-color="#ffd8e4"/>
      <stop offset="40%" stop-color="#f0a0b8"/>
      <stop offset="100%" stop-color="#c45a78"/>
    </radialGradient>
    <radialGradient id="roseInner" cx="45%" cy="35%" r="65%">
      <stop offset="0%" stop-color="#ffeef3"/>
      <stop offset="100%" stop-color="#d87898"/>
    </radialGradient>
    <filter id="plantShadow" x="-30%" y="-10%" width="160%" height="130%">
      <feDropShadow dx="0" dy="4" stdDeviation="5" flood-color="#000" flood-opacity="0.35"/>
    </filter>
    <filter id="bloomGlow" x="-40%" y="-40%" width="180%" height="180%">
      <feGaussianBlur stdDeviation="2.5" result="blur"/>
      <feMerge>
        <feMergeNode in="blur"/>
        <feMergeNode in="SourceGraphic"/>
      </feMerge>
    </filter>
  </defs>

  <!-- Ground shadow -->
  <ellipse cx="80" cy="232" rx="52" ry="8" fill="#000" opacity="0.28"/>

  <!-- Pot saucer -->
  <ellipse cx="80" cy="226" rx="58" ry="10" fill="#3a1a08" opacity="0.55"/>
  <ellipse cx="80" cy="224" rx="54" ry="8" fill="url(#potBody)" opacity="0.85"/>

  <!-- Pot body -->
  <path d="M42 178 Q38 210 48 228 Q80 238 112 228 Q122 210 118 178 Z" fill="url(#potBody)"/>
  <path d="M42 178 Q38 210 48 228 Q80 238 112 228 Q122 210 118 178 Z" fill="url(#potHighlight)" opacity="0.75"/>
  <path d="M38 176 Q80 168 122 176 L118 184 Q80 176 42 184 Z" fill="url(#potRim)"/>
  <ellipse cx="80" cy="178" rx="42" ry="9" fill="url(#soilGrad)"/>
  <ellipse cx="80" cy="176" rx="38" ry="6" fill="#1a0e06" opacity="0.35"/>

  <!-- Stems -->
  <path d="M68 174 Q58 140 52 98" stroke="url(#stemGrad)" stroke-width="3.2" stroke-linecap="round" fill="none"/>
  <path d="M80 174 Q82 130 88 72" stroke="url(#stemGrad)" stroke-width="3.6" stroke-linecap="round" fill="none"/>
  <path d="M92 174 Q102 138 108 108" stroke="url(#stemGrad)" stroke-width="3" stroke-linecap="round" fill="none"/>
  <path d="M74 174 Q66 148 62 118" stroke="url(#stemGrad)" stroke-width="2.4" stroke-linecap="round" fill="none" opacity="0.85"/>

  <!-- Leaves -->
  <g opacity="0.95">
    <path d="M56 132 Q44 126 42 138 Q48 148 58 142 Q62 136 56 132Z" fill="url(#leafGrad)"/>
    <path d="M56 132 Q44 126 42 138 Q48 148 58 142 Q62 136 56 132Z" fill="none" stroke="#1a3a18" stroke-width="0.6" opacity="0.5"/>
    <path d="M94 148 Q108 142 112 154 Q104 162 92 156 Q88 150 94 148Z" fill="url(#leafGrad)"/>
    <path d="M94 148 Q108 142 112 154 Q104 162 92 156 Q88 150 94 148Z" fill="none" stroke="#1a3a18" stroke-width="0.6" opacity="0.5"/>
    <path d="M70 158 Q58 152 56 164 Q62 172 72 166 Q74 160 70 158Z" fill="url(#leafGrad)"/>
    <path d="M86 122 Q98 116 100 128 Q92 136 82 130 Q80 124 86 122Z" fill="url(#leafGrad)"/>
    <path d="M104 118 Q118 112 120 124 Q110 132 100 126 Q98 120 104 118Z" fill="url(#leafGrad)"/>
  </g>

  <g filter="url(#plantShadow)">
    <!-- Left marigold (medium) -->
    <g transform="translate(48 98)">
      <g filter="url(#bloomGlow)">
        <ellipse cx="0" cy="6" rx="10" ry="22" fill="url(#marigoldOuter)" transform="rotate(0)"/>
        <ellipse cx="0" cy="6" rx="10" ry="22" fill="url(#marigoldOuter)" transform="rotate(22)"/>
        <ellipse cx="0" cy="6" rx="10" ry="22" fill="url(#marigoldOuter)" transform="rotate(44)"/>
        <ellipse cx="0" cy="6" rx="10" ry="22" fill="url(#marigoldOuter)" transform="rotate(66)"/>
        <ellipse cx="0" cy="6" rx="10" ry="22" fill="url(#marigoldOuter)" transform="rotate(88)"/>
        <ellipse cx="0" cy="6" rx="10" ry="22" fill="url(#marigoldOuter)" transform="rotate(110)"/>
        <ellipse cx="0" cy="6" rx="10" ry="22" fill="url(#marigoldOuter)" transform="rotate(132)"/>
        <ellipse cx="0" cy="6" rx="10" ry="22" fill="url(#marigoldOuter)" transform="rotate(154)"/>
        <ellipse cx="0" cy="6" rx="10" ry="22" fill="url(#marigoldOuter)" transform="rotate(176)"/>
        <ellipse cx="0" cy="6" rx="10" ry="22" fill="url(#marigoldOuter)" transform="rotate(198)"/>
        <ellipse cx="0" cy="6" rx="10" ry="22" fill="url(#marigoldOuter)" transform="rotate(220)"/>
        <ellipse cx="0" cy="6" rx="10" ry="22" fill="url(#marigoldOuter)" transform="rotate(242)"/>
        <ellipse cx="0" cy="6" rx="10" ry="22" fill="url(#marigoldOuter)" transform="rotate(264)"/>
        <ellipse cx="0" cy="6" rx="10" ry="22" fill="url(#marigoldOuter)" transform="rotate(286)"/>
        <ellipse cx="0" cy="6" rx="10" ry="22" fill="url(#marigoldOuter)" transform="rotate(308)"/>
        <ellipse cx="0" cy="6" rx="10" ry="22" fill="url(#marigoldOuter)" transform="rotate(330)"/>
        <ellipse cx="0" cy="4" rx="7" ry="16" fill="url(#marigoldMid)" transform="rotate(11)"/>
        <ellipse cx="0" cy="4" rx="7" ry="16" fill="url(#marigoldMid)" transform="rotate(33)"/>
        <ellipse cx="0" cy="4" rx="7" ry="16" fill="url(#marigoldMid)" transform="rotate(55)"/>
        <ellipse cx="0" cy="4" rx="7" ry="16" fill="url(#marigoldMid)" transform="rotate(77)"/>
        <ellipse cx="0" cy="4" rx="7" ry="16" fill="url(#marigoldMid)" transform="rotate(99)"/>
        <ellipse cx="0" cy="4" rx="7" ry="16" fill="url(#marigoldMid)" transform="rotate(121)"/>
        <ellipse cx="0" cy="4" rx="7" ry="16" fill="url(#marigoldMid)" transform="rotate(143)"/>
        <ellipse cx="0" cy="4" rx="7" ry="16" fill="url(#marigoldMid)" transform="rotate(165)"/>
        <ellipse cx="0" cy="4" rx="7" ry="16" fill="url(#marigoldMid)" transform="rotate(187)"/>
        <ellipse cx="0" cy="4" rx="7" ry="16" fill="url(#marigoldMid)" transform="rotate(209)"/>
        <ellipse cx="0" cy="4" rx="7" ry="16" fill="url(#marigoldMid)" transform="rotate(231)"/>
        <ellipse cx="0" cy="4" rx="7" ry="16" fill="url(#marigoldMid)" transform="rotate(253)"/>
        <ellipse cx="0" cy="4" rx="7" ry="16" fill="url(#marigoldMid)" transform="rotate(275)"/>
        <ellipse cx="0" cy="4" rx="7" ry="16" fill="url(#marigoldMid)" transform="rotate(297)"/>
        <ellipse cx="0" cy="4" rx="7" ry="16" fill="url(#marigoldMid)" transform="rotate(319)"/>
        <ellipse cx="0" cy="4" rx="7" ry="16" fill="url(#marigoldMid)" transform="rotate(341)"/>
        <circle cx="0" cy="2" r="9" fill="url(#marigoldCenter)"/>
        <circle cx="-2" cy="0" r="1.2" fill="#a85810" opacity="0.6"/>
        <circle cx="2" cy="1" r="1" fill="#a85810" opacity="0.5"/>
        <circle cx="0" cy="4" r="1.1" fill="#a85810" opacity="0.55"/>
      </g>
    </g>

    <!-- Center main marigold (largest) -->
    <g transform="translate(88 58)">
      <g filter="url(#bloomGlow)">
        <ellipse cx="0" cy="8" rx="14" ry="30" fill="url(#marigoldOuter)" transform="rotate(0)"/>
        <ellipse cx="0" cy="8" rx="14" ry="30" fill="url(#marigoldOuter)" transform="rotate(20)"/>
        <ellipse cx="0" cy="8" rx="14" ry="30" fill="url(#marigoldOuter)" transform="rotate(40)"/>
        <ellipse cx="0" cy="8" rx="14" ry="30" fill="url(#marigoldOuter)" transform="rotate(60)"/>
        <ellipse cx="0" cy="8" rx="14" ry="30" fill="url(#marigoldOuter)" transform="rotate(80)"/>
        <ellipse cx="0" cy="8" rx="14" ry="30" fill="url(#marigoldOuter)" transform="rotate(100)"/>
        <ellipse cx="0" cy="8" rx="14" ry="30" fill="url(#marigoldOuter)" transform="rotate(120)"/>
        <ellipse cx="0" cy="8" rx="14" ry="30" fill="url(#marigoldOuter)" transform="rotate(140)"/>
        <ellipse cx="0" cy="8" rx="14" ry="30" fill="url(#marigoldOuter)" transform="rotate(160)"/>
        <ellipse cx="0" cy="8" rx="14" ry="30" fill="url(#marigoldOuter)" transform="rotate(180)"/>
        <ellipse cx="0" cy="8" rx="14" ry="30" fill="url(#marigoldOuter)" transform="rotate(200)"/>
        <ellipse cx="0" cy="8" rx="14" ry="30" fill="url(#marigoldOuter)" transform="rotate(220)"/>
        <ellipse cx="0" cy="8" rx="14" ry="30" fill="url(#marigoldOuter)" transform="rotate(240)"/>
        <ellipse cx="0" cy="8" rx="14" ry="30" fill="url(#marigoldOuter)" transform="rotate(260)"/>
        <ellipse cx="0" cy="8" rx="14" ry="30" fill="url(#marigoldOuter)" transform="rotate(280)"/>
        <ellipse cx="0" cy="8" rx="14" ry="30" fill="url(#marigoldOuter)" transform="rotate(300)"/>
        <ellipse cx="0" cy="8" rx="14" ry="30" fill="url(#marigoldOuter)" transform="rotate(320)"/>
        <ellipse cx="0" cy="8" rx="14" ry="30" fill="url(#marigoldOuter)" transform="rotate(340)"/>
        <ellipse cx="0" cy="5" rx="10" ry="22" fill="url(#marigoldMid)" transform="rotate(10)"/>
        <ellipse cx="0" cy="5" rx="10" ry="22" fill="url(#marigoldMid)" transform="rotate(30)"/>
        <ellipse cx="0" cy="5" rx="10" ry="22" fill="url(#marigoldMid)" transform="rotate(50)"/>
        <ellipse cx="0" cy="5" rx="10" ry="22" fill="url(#marigoldMid)" transform="rotate(70)"/>
        <ellipse cx="0" cy="5" rx="10" ry="22" fill="url(#marigoldMid)" transform="rotate(90)"/>
        <ellipse cx="0" cy="5" rx="10" ry="22" fill="url(#marigoldMid)" transform="rotate(110)"/>
        <ellipse cx="0" cy="5" rx="10" ry="22" fill="url(#marigoldMid)" transform="rotate(130)"/>
        <ellipse cx="0" cy="5" rx="10" ry="22" fill="url(#marigoldMid)" transform="rotate(150)"/>
        <ellipse cx="0" cy="5" rx="10" ry="22" fill="url(#marigoldMid)" transform="rotate(170)"/>
        <ellipse cx="0" cy="5" rx="10" ry="22" fill="url(#marigoldMid)" transform="rotate(190)"/>
        <ellipse cx="0" cy="5" rx="10" ry="22" fill="url(#marigoldMid)" transform="rotate(210)"/>
        <ellipse cx="0" cy="5" rx="10" ry="22" fill="url(#marigoldMid)" transform="rotate(230)"/>
        <ellipse cx="0" cy="5" rx="10" ry="22" fill="url(#marigoldMid)" transform="rotate(250)"/>
        <ellipse cx="0" cy="5" rx="10" ry="22" fill="url(#marigoldMid)" transform="rotate(270)"/>
        <ellipse cx="0" cy="5" rx="10" ry="22" fill="url(#marigoldMid)" transform="rotate(290)"/>
        <ellipse cx="0" cy="5" rx="10" ry="22" fill="url(#marigoldMid)" transform="rotate(310)"/>
        <ellipse cx="0" cy="5" rx="10" ry="22" fill="url(#marigoldMid)" transform="rotate(330)"/>
        <ellipse cx="0" cy="5" rx="10" ry="22" fill="url(#marigoldMid)" transform="rotate(350)"/>
        <circle cx="0" cy="2" r="12" fill="url(#marigoldCenter)"/>
        <circle cx="-3" cy="-1" r="1.5" fill="#a85810" opacity="0.65"/>
        <circle cx="3" cy="0" r="1.3" fill="#a85810" opacity="0.55"/>
        <circle cx="0" cy="4" r="1.4" fill="#a85810" opacity="0.6"/>
        <circle cx="-2" cy="3" r="1" fill="#a85810" opacity="0.45"/>
        <circle cx="2" cy="3" r="1" fill="#a85810" opacity="0.45"/>
      </g>
    </g>

    <!-- Right rose accent -->
    <g transform="translate(108 102)">
      <g filter="url(#bloomGlow)">
        <ellipse cx="0" cy="5" rx="9" ry="18" fill="url(#roseOuter)" transform="rotate(0)"/>
        <ellipse cx="0" cy="5" rx="9" ry="18" fill="url(#roseOuter)" transform="rotate(45)"/>
        <ellipse cx="0" cy="5" rx="9" ry="18" fill="url(#roseOuter)" transform="rotate(90)"/>
        <ellipse cx="0" cy="5" rx="9" ry="18" fill="url(#roseOuter)" transform="rotate(135)"/>
        <ellipse cx="0" cy="5" rx="9" ry="18" fill="url(#roseOuter)" transform="rotate(180)"/>
        <ellipse cx="0" cy="5" rx="9" ry="18" fill="url(#roseOuter)" transform="rotate(225)"/>
        <ellipse cx="0" cy="5" rx="9" ry="18" fill="url(#roseOuter)" transform="rotate(270)"/>
        <ellipse cx="0" cy="5" rx="9" ry="18" fill="url(#roseOuter)" transform="rotate(315)"/>
        <ellipse cx="0" cy="3" rx="6" ry="13" fill="url(#roseInner)" transform="rotate(22)"/>
        <ellipse cx="0" cy="3" rx="6" ry="13" fill="url(#roseInner)" transform="rotate(67)"/>
        <ellipse cx="0" cy="3" rx="6" ry="13" fill="url(#roseInner)" transform="rotate(112)"/>
        <ellipse cx="0" cy="3" rx="6" ry="13" fill="url(#roseInner)" transform="rotate(157)"/>
        <ellipse cx="0" cy="3" rx="6" ry="13" fill="url(#roseInner)" transform="rotate(202)"/>
        <ellipse cx="0" cy="3" rx="6" ry="13" fill="url(#roseInner)" transform="rotate(247)"/>
        <ellipse cx="0" cy="3" rx="6" ry="13" fill="url(#roseInner)" transform="rotate(292)"/>
        <ellipse cx="0" cy="3" rx="6" ry="13" fill="url(#roseInner)" transform="rotate(337)"/>
        <circle cx="0" cy="1" r="5" fill="#c86888"/>
        <path d="M-3 -2 Q0 -6 3 -2 Q1 0 0 2 Q-1 0 -3 -2Z" fill="#ffd8e4" opacity="0.85"/>
      </g>
    </g>

    <!-- Small bud marigold -->
    <g transform="translate(62 118)">
      <ellipse cx="0" cy="3" rx="6" ry="12" fill="url(#marigoldOuter)" transform="rotate(0)"/>
      <ellipse cx="0" cy="3" rx="6" ry="12" fill="url(#marigoldOuter)" transform="rotate(40)"/>
      <ellipse cx="0" cy="3" rx="6" ry="12" fill="url(#marigoldOuter)" transform="rotate(80)"/>
      <ellipse cx="0" cy="3" rx="6" ry="12" fill="url(#marigoldOuter)" transform="rotate(120)"/>
      <ellipse cx="0" cy="3" rx="6" ry="12" fill="url(#marigoldOuter)" transform="rotate(160)"/>
      <ellipse cx="0" cy="3" rx="6" ry="12" fill="url(#marigoldOuter)" transform="rotate(200)"/>
      <ellipse cx="0" cy="3" rx="6" ry="12" fill="url(#marigoldOuter)" transform="rotate(240)"/>
      <ellipse cx="0" cy="3" rx="6" ry="12" fill="url(#marigoldOuter)" transform="rotate(280)"/>
      <ellipse cx="0" cy="3" rx="6" ry="12" fill="url(#marigoldOuter)" transform="rotate(320)"/>
      <circle cx="0" cy="1" r="5" fill="url(#marigoldCenter)"/>
    </g>
  </g>
</svg>
