<svg xmlns="http://www.w3.org/2000/svg" viewBox="0 0 72 400" preserveAspectRatio="none">
  <g stroke="#c79a3b" stroke-width="0.8" fill="none" opacity="0.45">
    <path d="M36 20 Q20 60 36 100 Q52 60 36 20"/>
    <path d="M36 100 Q20 140 36 180 Q52 140 36 100"/>
    <path d="M36 180 Q20 220 36 260 Q52 220 36 180"/>
    <path d="M36 260 Q20 300 36 340 Q52 300 36 260"/>
    <path d="M36 340 Q20 370 36 390 Q52 370 36 340"/>
  </g>
  <g fill="#d4af37" opacity="0.35">
    <circle cx="36" cy="50" r="3"/><circle cx="36" cy="130" r="2.5"/><circle cx="36" cy="210" r="3"/>
    <circle cx="36" cy="290" r="2.5"/><circle cx="36" cy="360" r="3"/>
  </g>
</svg>
