<svg xmlns="http://www.w3.org/2000/svg" viewBox="0 0 80 400" preserveAspectRatio="none">
  <defs>
    <linearGradient id="rg" x1="0%" y1="0%" x2="100%" y2="100%">
      <stop offset="0%" stop-color="#f5e6a8"/>
      <stop offset="100%" stop-color="#d4a830"/>
    </linearGradient>
  </defs>
  <rect width="80" height="400" fill="url(#rg)" opacity="0.15"/>
  <g opacity="0.85">
    <circle cx="40" cy="40" r="14" fill="#f0d070"/><circle cx="34" cy="36" r="8" fill="#fff8e0"/><circle cx="46" cy="38" r="7" fill="#e8c050"/>
    <circle cx="40" cy="95" r="12" fill="#f5e090"/><circle cx="35" cy="92" r="7" fill="#fff8e0"/>
    <circle cx="40" cy="150" r="13" fill="#f0d070"/><circle cx="45" cy="147" r="7" fill="#e8c050"/>
    <circle cx="40" cy="205" r="12" fill="#f5e090"/><circle cx="34" cy="202" r="6" fill="#fff8e0"/>
    <circle cx="40" cy="260" r="14" fill="#f0d070"/><circle cx="46" cy="257" r="8" fill="#e8c050"/>
    <circle cx="40" cy="315" r="12" fill="#f5e090"/><circle cx="35" cy="312" r="7" fill="#fff8e0"/>
    <circle cx="40" cy="370" r="13" fill="#f0d070"/><circle cx="44" cy="367" r="7" fill="#e8c050"/>
  </g>
  <path d="M40 8 Q52 30 40 52 Q28 30 40 8Z" fill="#5a9a48" opacity="0.5"/>
  <path d="M40 118 Q52 140 40 162 Q28 140 40 118Z" fill="#5a9a48" opacity="0.45"/>
  <path d="M40 228 Q52 250 40 272 Q28 250 40 228Z" fill="#5a9a48" opacity="0.5"/>
  <path d="M40 338 Q52 360 40 382 Q28 360 40 338Z" fill="#5a9a48" opacity="0.45"/>
</svg>
