<svg xmlns="http://www.w3.org/2000/svg" viewBox="0 0 480 56" preserveAspectRatio="none">
  <path d="M0 28 Q80 10 160 28 Q240 46 320 28 Q400 10 480 28" stroke="#c79a3b" stroke-width="1" fill="none" opacity="0.5"/>
  <g opacity="0.9">
    <circle cx="48" cy="26" r="9" fill="#e8962a"/><circle cx="44" cy="24" r="5" fill="#f5c040"/>
    <circle cx="144" cy="28" r="8" fill="#f0a830"/><circle cx="148" cy="26" r="5" fill="#e88820"/>
    <circle cx="240" cy="24" r="10" fill="#e8962a"/><circle cx="236" cy="22" r="6" fill="#f5c040"/>
    <circle cx="336" cy="28" r="8" fill="#f0a830"/>
    <circle cx="432" cy="26" r="9" fill="#e8962a"/><circle cx="436" cy="24" r="5" fill="#f5c040"/>
  </g>
  <path d="M24 18 Q30 10 36 18 Q30 24 24 18Z" fill="#3d7a45" opacity="0.6"/>
  <path d="M120 20 Q126 12 132 20 Q126 26 120 20Z" fill="#3d7a45" opacity="0.55"/>
  <path d="M216 16 Q222 8 228 16 Q222 22 216 16Z" fill="#3d7a45" opacity="0.6"/>
  <path d="M312 20 Q318 12 324 20 Q318 26 312 20Z" fill="#3d7a45" opacity="0.55"/>
  <path d="M408 18 Q414 10 420 18 Q414 24 408 18Z" fill="#3d7a45" opacity="0.6"/>
</svg>
