<svg xmlns="http://www.w3.org/2000/svg" viewBox="0 0 96 96" fill="none">
  <defs>
    <pattern id="ambi" width="96" height="96" patternUnits="userSpaceOnUse">
      <!-- paisley / ambi motif -->
      <path d="M24 48 C24 28 38 14 48 14 C58 14 72 28 72 48 C72 62 58 76 48 82 C38 76 24 62 24 48Z" stroke="#8f6a1c" stroke-width="0.7" opacity="0.35" fill="none"/>
      <path d="M30 48 C30 34 40 24 48 24 C56 24 66 34 66 48 C66 58 56 68 48 72 C40 68 30 58 30 48Z" fill="#c79a3b" opacity="0.08"/>
      <circle cx="48" cy="44" r="2" fill="#5e0f17" opacity="0.2"/>
      <!-- small dots -->
      <circle cx="12" cy="12" r="1.2" fill="#8f6a1c" opacity="0.25"/>
      <circle cx="84" cy="12" r="1.2" fill="#8f6a1c" opacity="0.25"/>
      <circle cx="12" cy="84" r="1.2" fill="#8f6a1c" opacity="0.25"/>
      <circle cx="84" cy="84" r="1.2" fill="#8f6a1c" opacity="0.25"/>
      <!-- diagonal leaf -->
      <path d="M8 48 Q20 36 32 48 Q20 60 8 48Z" fill="#5e0f17" opacity="0.06"/>
      <path d="M64 48 Q76 36 88 48 Q76 60 64 48Z" fill="#5e0f17" opacity="0.06"/>
    </pattern>
  </defs>
  <rect width="96" height="96" fill="url(#ambi)"/>
</svg>
