<svg xmlns="http://www.w3.org/2000/svg" viewBox="0 0 500 500" fill="none">
  <defs>
    <linearGradient id="g1" x1="0%" y1="0%" x2="100%" y2="100%">
      <stop offset="0%" stop-color="#f0d78c"/>
      <stop offset="45%" stop-color="#d4af37"/>
      <stop offset="100%" stop-color="#a8842a"/>
    </linearGradient>
    <linearGradient id="g2" x1="100%" y1="0%" x2="0%" y2="100%">
      <stop offset="0%" stop-color="#e8c860"/>
      <stop offset="100%" stop-color="#b8942f"/>
    </linearGradient>
  </defs>
  <!-- outer ring -->
  <circle cx="250" cy="250" r="235" stroke="url(#g1)" stroke-width="1.2" opacity="0.85"/>
  <circle cx="250" cy="250" r="220" stroke="url(#g2)" stroke-width="0.6" opacity="0.5" stroke-dasharray="3 5"/>
  <!-- eight large petals -->
  <g stroke="url(#g1)" stroke-width="1.1" fill="none" opacity="0.8">
    <path d="M250 28 C268 95 310 130 250 155 C190 130 232 95 250 28Z"/>
    <path d="M250 28 C268 95 310 130 250 155 C190 130 232 95 250 28Z" transform="rotate(45 250 250)"/>
    <path d="M250 28 C268 95 310 130 250 155 C190 130 232 95 250 28Z" transform="rotate(90 250 250)"/>
    <path d="M250 28 C268 95 310 130 250 155 C190 130 232 95 250 28Z" transform="rotate(135 250 250)"/>
    <path d="M250 28 C268 95 310 130 250 155 C190 130 232 95 250 28Z" transform="rotate(180 250 250)"/>
    <path d="M250 28 C268 95 310 130 250 155 C190 130 232 95 250 28Z" transform="rotate(225 250 250)"/>
    <path d="M250 28 C268 95 310 130 250 155 C190 130 232 95 250 28Z" transform="rotate(270 250 250)"/>
    <path d="M250 28 C268 95 310 130 250 155 C190 130 232 95 250 28Z" transform="rotate(315 250 250)"/>
  </g>
  <!-- inner petal layer -->
  <g fill="url(#g1)" opacity="0.12">
    <path d="M250 78 C260 118 282 142 250 158 C218 142 240 118 250 78Z"/>
    <path d="M250 78 C260 118 282 142 250 158 C218 142 240 118 250 78Z" transform="rotate(45 250 250)"/>
    <path d="M250 78 C260 118 282 142 250 158 C218 142 240 118 250 78Z" transform="rotate(90 250 250)"/>
    <path d="M250 78 C260 118 282 142 250 158 C218 142 240 118 250 78Z" transform="rotate(135 250 250)"/>
    <path d="M250 78 C260 118 282 142 250 158 C218 142 240 118 250 78Z" transform="rotate(180 250 250)"/>
    <path d="M250 78 C260 118 282 142 250 158 C218 142 240 118 250 78Z" transform="rotate(225 250 250)"/>
    <path d="M250 78 C260 118 282 142 250 158 C218 142 240 118 250 78Z" transform="rotate(270 250 250)"/>
    <path d="M250 78 C260 118 282 142 250 158 C218 142 240 118 250 78Z" transform="rotate(315 250 250)"/>
  </g>
  <!-- swirl filigree -->
  <g stroke="url(#g2)" stroke-width="0.9" fill="none" opacity="0.7">
    <path d="M250 165 Q290 190 250 215 Q210 190 250 165"/>
    <path d="M250 165 Q290 190 250 215 Q210 190 250 165" transform="rotate(45 250 250)"/>
    <path d="M250 165 Q290 190 250 215 Q210 190 250 165" transform="rotate(90 250 250)"/>
    <path d="M250 165 Q290 190 250 215 Q210 190 250 165" transform="rotate(135 250 250)"/>
    <path d="M250 165 Q290 190 250 215 Q210 190 250 165" transform="rotate(180 250 250)"/>
    <path d="M250 165 Q290 190 250 215 Q210 190 250 165" transform="rotate(225 250 250)"/>
    <path d="M250 165 Q290 190 250 215 Q210 190 250 165" transform="rotate(270 250 250)"/>
    <path d="M250 165 Q290 190 250 215 Q210 190 250 165" transform="rotate(315 250 250)"/>
  </g>
  <!-- teardrop paisleys -->
  <g fill="url(#g1)" opacity="0.25">
    <ellipse cx="250" cy="118" rx="8" ry="14" transform="rotate(0 250 250)"/>
    <ellipse cx="250" cy="118" rx="8" ry="14" transform="rotate(45 250 250)"/>
    <ellipse cx="250" cy="118" rx="8" ry="14" transform="rotate(90 250 250)"/>
    <ellipse cx="250" cy="118" rx="8" ry="14" transform="rotate(135 250 250)"/>
    <ellipse cx="250" cy="118" rx="8" ry="14" transform="rotate(180 250 250)"/>
    <ellipse cx="250" cy="118" rx="8" ry="14" transform="rotate(225 250 250)"/>
    <ellipse cx="250" cy="118" rx="8" ry="14" transform="rotate(270 250 250)"/>
    <ellipse cx="250" cy="118" rx="8" ry="14" transform="rotate(315 250 250)"/>
  </g>
  <!-- middle rings -->
  <circle cx="250" cy="250" r="95" stroke="url(#g1)" stroke-width="1" opacity="0.65"/>
  <circle cx="250" cy="250" r="78" stroke="url(#g2)" stroke-width="0.7" opacity="0.45"/>
  <!-- inner lotus -->
  <g stroke="url(#g1)" stroke-width="0.85" fill="none" opacity="0.75">
    <path d="M250 195 C258 215 272 225 250 232 C228 225 242 215 250 195Z"/>
    <path d="M250 195 C258 215 272 225 250 232 C228 225 242 215 250 195Z" transform="rotate(60 250 250)"/>
    <path d="M250 195 C258 215 272 225 250 232 C228 225 242 215 250 195Z" transform="rotate(120 250 250)"/>
    <path d="M250 195 C258 215 272 225 250 232 C228 225 242 215 250 195Z" transform="rotate(180 250 250)"/>
    <path d="M250 195 C258 215 272 225 250 232 C228 225 242 215 250 195Z" transform="rotate(240 250 250)"/>
    <path d="M250 195 C258 215 272 225 250 232 C228 225 242 215 250 195Z" transform="rotate(300 250 250)"/>
  </g>
  <circle cx="250" cy="250" r="22" fill="url(#g1)" opacity="0.2" stroke="url(#g2)" stroke-width="0.8"/>
  <circle cx="250" cy="250" r="8" fill="url(#g1)" opacity="0.35"/>
  <!-- dot ring -->
  <g fill="url(#g1)" opacity="0.55">
    <circle cx="250" cy="42" r="3"/><circle cx="250" cy="458" r="3"/>
    <circle cx="42" cy="250" r="3"/><circle cx="458" cy="250" r="3"/>
    <circle cx="103" cy="103" r="2.5"/><circle cx="397" cy="103" r="2.5"/>
    <circle cx="103" cy="397" r="2.5"/><circle cx="397" cy="397" r="2.5"/>
  </g>
</svg>
